<svg viewBox="0 0 17200 17200" xmlns="http://www.w3.org/2000/svg" xmlns:xlink="http://www.w3.org/1999/xlink">
<circle cx="8600" cy="8600" r="0" stroke="#E0E0E0" stroke-width="10.0" fill="none" />
<circle cx="8600" cy="8600" r="1175" stroke="#E0E0E0" stroke-width="10.0" fill="none" />
<circle cx="8600" cy="8600" r="2350" stroke="#E0E0E0" stroke-width="10.0" fill="none" />
<circle cx="8600" cy="8600" r="3525" stroke="#E0E0E0" stroke-width="10.0" fill="none" />
<circle cx="8600" cy="8600" r="4700" stroke="#E0E0E0" stroke-width="10.0" fill="none" />
<circle cx="8600" cy="8600" r="5875" stroke="#E0E0E0" stroke-width="10.0" fill="none" />
<circle cx="8600" cy="8600" r="7050" stroke="#E0E0E0" stroke-width="10.0" fill="none" />
<circle cx="8600" cy="8600" r="8225" stroke="#E0E0E0" stroke-width="10.0" fill="none" />
<line x1="8600.0" y1="8600.0" x2="9096.08" y2="7534.8574" stroke="#BDBDBD" stroke-width="5.0" />
<line x1="8600.0" y1="8600.0" x2="9416.012" y2="7754.5713" stroke="#BDBDBD" stroke-width="5.0" />
<line x1="8600.0" y1="8600.0" x2="9774.433" y2="8636.523" stroke="#BDBDBD" stroke-width="5.0" />
<line x1="8600.0" y1="8600.0" x2="9230.03" y2="9591.81" stroke="#BDBDBD" stroke-width="5.0" />
<line x1="9774.433" y1="8636.523" x2="10860.619" y2="7958.048" stroke="#BDBDBD" stroke-width="5.0" />
<line x1="9774.433" y1="8636.523" x2="10864.746" y2="9227.238" stroke="#BDBDBD" stroke-width="5.0" />
<line x1="10864.746" y1="9227.238" x2="12103.264" y2="8990.857" stroke="#BDBDBD" stroke-width="5.0" />
<line x1="10864.746" y1="9227.238" x2="12071.668" y2="9210.857" stroke="#BDBDBD" stroke-width="5.0" />
<line x1="10864.746" y1="9227.238" x2="12025.683" y2="9430.857" stroke="#BDBDBD" stroke-width="5.0" />
<line x1="10864.746" y1="9227.238" x2="11964.718" y2="9650.857" stroke="#BDBDBD" stroke-width="5.0" />
<line x1="9230.03" y1="9591.81" x2="9859.611" y2="10583.905" stroke="#BDBDBD" stroke-width="5.0" />
<line x1="9859.611" y1="10583.905" x2="11048.4795" y2="11135.857" stroke="#BDBDBD" stroke-width="5.0" />
<line x1="9859.611" y1="10583.905" x2="10797.925" y2="11355.857" stroke="#BDBDBD" stroke-width="5.0" />
<line x1="9859.611" y1="10583.905" x2="10489.417" y2="11575.857" stroke="#BDBDBD" stroke-width="5.0" />
<line x1="9859.611" y1="10583.905" x2="10087.32" y2="11795.857" stroke="#BDBDBD" stroke-width="5.0" />
<line x1="9859.611" y1="10583.905" x2="9470.369" y2="12015.857" stroke="#BDBDBD" stroke-width="5.0" />
<line x1="8600.0" y1="8600.0" x2="8004.3545" y2="9612.833" stroke="#BDBDBD" stroke-width="5.0" />
<line x1="10864.746" y1="9227.238" x2="11887.939" y2="9870.857" stroke="#BDBDBD" stroke-width="5.0" />
<line x1="10864.746" y1="9227.238" x2="11794.209" y2="10090.857" stroke="#BDBDBD" stroke-width="5.0" />
<line x1="10860.619" y1="7958.048" x2="11879.323" y2="7307.0713" stroke="#BDBDBD" stroke-width="5.0" />
<line x1="10860.619" y1="7958.048" x2="12124.657" y2="8550.857" stroke="#BDBDBD" stroke-width="5.0" />
<line x1="12124.657" y1="8550.857" x2="13283.328" y2="8204.477" stroke="#BDBDBD" stroke-width="5.0" />
<line x1="12124.657" y1="8550.857" x2="13296.721" y2="8424.477" stroke="#BDBDBD" stroke-width="5.0" />
<line x1="12124.657" y1="8550.857" x2="13299.789" y2="8644.477" stroke="#BDBDBD" stroke-width="5.0" />
<line x1="12124.657" y1="8550.857" x2="13292.553" y2="8864.477" stroke="#BDBDBD" stroke-width="5.0" />
<line x1="11879.323" y1="7307.0713" x2="12468.023" y2="5930.0947" stroke="#BDBDBD" stroke-width="5.0" />
<line x1="11879.323" y1="7307.0713" x2="12949.272" y2="6818.476" stroke="#BDBDBD" stroke-width="5.0" />
<line x1="12949.272" y1="6818.476" x2="13716.777" y2="5713.095" stroke="#BDBDBD" stroke-width="5.0" />
<line x1="12949.272" y1="6818.476" x2="13834.811" y2="5933.095" stroke="#BDBDBD" stroke-width="5.0" />
<line x1="12949.272" y1="6818.476" x2="13941.1875" y2="6153.095" stroke="#BDBDBD" stroke-width="5.0" />
<line x1="12949.272" y1="6818.476" x2="14036.591" y2="6373.095" stroke="#BDBDBD" stroke-width="5.0" />
<line x1="12949.272" y1="6818.476" x2="14121.59" y2="6593.095" stroke="#BDBDBD" stroke-width="5.0" />
<line x1="9774.433" y1="8636.523" x2="10528.963" y2="9942.238" stroke="#BDBDBD" stroke-width="5.0" />
<line x1="12468.023" y1="5930.0947" x2="13435.029" y2="5262.6187" stroke="#BDBDBD" stroke-width="5.0" />
<line x1="13435.029" y1="5262.6187" x2="14184.174" y2="4296.571" stroke="#BDBDBD" stroke-width="5.0" />
<line x1="13435.029" y1="5262.6187" x2="14347.008" y2="4516.571" stroke="#BDBDBD" stroke-width="5.0" />
<line x1="8600.0" y1="8600.0" x2="7610.403" y2="9233.5" stroke="#BDBDBD" stroke-width="5.0" />
<line x1="7610.403" y1="9233.5" x2="6462.922" y2="9577.444" stroke="#BDBDBD" stroke-width="5.0" />
<line x1="7610.403" y1="9233.5" x2="6620.8057" y2="9867.0" stroke="#BDBDBD" stroke-width="5.0" />
<line x1="7610.403" y1="9233.5" x2="6839.422" y2="10156.556" stroke="#BDBDBD" stroke-width="5.0" />
<line x1="13435.029" y1="5262.6187" x2="14547.887" y2="4815.1426" stroke="#BDBDBD" stroke-width="5.0" />
<line x1="14547.887" y1="4815.1426" x2="15467.967" y2="4074.3325" stroke="#BDBDBD" stroke-width="5.0" />
<line x1="14547.887" y1="4815.1426" x2="15607.984" y2="4294.3325" stroke="#BDBDBD" stroke-width="5.0" />
<line x1="11879.323" y1="7307.0713" x2="13179.941" y2="7544.476" stroke="#BDBDBD" stroke-width="5.0" />
<line x1="11879.323" y1="7307.0713" x2="13225.138" y2="7764.476" stroke="#BDBDBD" stroke-width="5.0" />
<line x1="11879.323" y1="7307.0713" x2="13259.5205" y2="7984.476" stroke="#BDBDBD" stroke-width="5.0" />
<line x1="12949.272" y1="6818.476" x2="14196.659" y2="6813.095" stroke="#BDBDBD" stroke-width="5.0" />
<line x1="12949.272" y1="6818.476" x2="14262.193" y2="7033.095" stroke="#BDBDBD" stroke-width="5.0" />
<line x1="10528.963" y1="9942.238" x2="11493.443" y2="10613.357" stroke="#BDBDBD" stroke-width="5.0" />
<line x1="11493.443" y1="10613.357" x2="12729.446" y2="10844.477" stroke="#BDBDBD" stroke-width="5.0" />
<line x1="11493.443" y1="10613.357" x2="12602.044" y2="11064.477" stroke="#BDBDBD" stroke-width="5.0" />
<line x1="11493.443" y1="10613.357" x2="12457.925" y2="11284.477" stroke="#BDBDBD" stroke-width="5.0" />
<line x1="11493.443" y1="10613.357" x2="12295.134" y2="11504.477" stroke="#BDBDBD" stroke-width="5.0" />
<line x1="11493.443" y1="10613.357" x2="12111.074" y2="11724.477" stroke="#BDBDBD" stroke-width="5.0" />
<line x1="8600.0" y1="8600.0" x2="7487.916" y2="8220.667" stroke="#BDBDBD" stroke-width="5.0" />
<line x1="7487.916" y1="8220.667" x2="7734.971" y2="6415.0" stroke="#BDBDBD" stroke-width="5.0" />
<line x1="7487.916" y1="8220.667" x2="7230.9126" y2="6690.0" stroke="#BDBDBD" stroke-width="5.0" />
<line x1="7487.916" y1="8220.667" x2="6300.3115" y2="8116.333" stroke="#BDBDBD" stroke-width="5.0" />
<line x1="6300.3115" y1="8116.333" x2="6208.865" y2="6010.0" stroke="#BDBDBD" stroke-width="5.0" />
<line x1="6300.3115" y1="8116.333" x2="5990.6465" y2="6230.0" stroke="#BDBDBD" stroke-width="5.0" />
<line x1="6300.3115" y1="8116.333" x2="5806.593" y2="6450.0" stroke="#BDBDBD" stroke-width="5.0" />
<line x1="5806.593" y1="6450.0" x2="4875.457" y2="5733.333" stroke="#BDBDBD" stroke-width="5.0" />
<line x1="6300.3115" y1="8116.333" x2="5615.0376" y2="6725.0" stroke="#BDBDBD" stroke-width="5.0" />
<line x1="5615.0376" y1="6725.0" x2="4691.3047" y2="5990.0" stroke="#BDBDBD" stroke-width="5.0" />
<line x1="5615.0376" y1="6725.0" x2="4553.038" y2="6210.0" stroke="#BDBDBD" stroke-width="5.0" />
<line x1="6300.3115" y1="8116.333" x2="5459.041" y2="7000.0" stroke="#BDBDBD" stroke-width="5.0" />
<line x1="6300.3115" y1="8116.333" x2="5356.3564" y2="7220.0" stroke="#BDBDBD" stroke-width="5.0" />
<line x1="6300.3115" y1="8116.333" x2="5271.333" y2="7440.0" stroke="#BDBDBD" stroke-width="5.0" />
<line x1="6300.3115" y1="8116.333" x2="5196.634" y2="7682.0" stroke="#BDBDBD" stroke-width="5.0" />
<line x1="6300.3115" y1="8116.333" x2="5140.427" y2="7924.0" stroke="#BDBDBD" stroke-width="5.0" />
<line x1="6300.3115" y1="8116.333" x2="5104.619" y2="8144.0" stroke="#BDBDBD" stroke-width="5.0" />
<line x1="6300.3115" y1="8116.333" x2="5082.909" y2="8364.0" stroke="#BDBDBD" stroke-width="5.0" />
<line x1="6300.3115" y1="8116.333" x2="5075.036" y2="8584.0" stroke="#BDBDBD" stroke-width="5.0" />
<line x1="5075.036" y1="8584.0" x2="3900.0483" y2="8578.666" stroke="#BDBDBD" stroke-width="5.0" />
<line x1="6300.3115" y1="8116.333" x2="5080.908" y2="8804.0" stroke="#BDBDBD" stroke-width="5.0" />
<line x1="7734.971" y1="6415.0" x2="7302.4565" y2="5322.5" stroke="#BDBDBD" stroke-width="5.0" />
<line x1="7302.4565" y1="5322.5" x2="7589.1094" y2="4010.0" stroke="#BDBDBD" stroke-width="5.0" />
<line x1="7302.4565" y1="5322.5" x2="6869.9424" y2="4230.0" stroke="#BDBDBD" stroke-width="5.0" />
<line x1="7302.4565" y1="5322.5" x2="6393.759" y2="4450.0" stroke="#BDBDBD" stroke-width="5.0" />
<line x1="5196.634" y1="7682.0" x2="4062.1787" y2="7376.0" stroke="#BDBDBD" stroke-width="5.0" />
<line x1="4062.1787" y1="7376.0" x2="2958.544" y2="6960.0" stroke="#BDBDBD" stroke-width="5.0" />
<line x1="4062.1787" y1="7376.0" x2="2899.191" y2="7180.0" stroke="#BDBDBD" stroke-width="5.0" />
<line x1="6300.3115" y1="8116.333" x2="5162.7217" y2="9381.5" stroke="#BDBDBD" stroke-width="5.0" />
<line x1="5162.7217" y1="9381.5" x2="3954.2432" y2="9312.0" stroke="#BDBDBD" stroke-width="5.0" />
<line x1="3954.2432" y1="9312.0" x2="2792.8042" y2="9490.0" stroke="#BDBDBD" stroke-width="5.0" />
<line x1="2792.8042" y1="9490.0" x2="1588.7334" y2="9338.0" stroke="#BDBDBD" stroke-width="5.0" />
<line x1="2792.8042" y1="9490.0" x2="1615.3931" y2="9558.0" stroke="#BDBDBD" stroke-width="5.0" />
<line x1="1615.3931" y1="9558.0" x2="451.2915" y2="9717.666" stroke="#BDBDBD" stroke-width="5.0" />
<line x1="2792.8042" y1="9490.0" x2="1649.1138" y2="9778.0" stroke="#BDBDBD" stroke-width="5.0" />
<line x1="2792.8042" y1="9490.0" x2="1690.0" y2="9998.0" stroke="#BDBDBD" stroke-width="5.0" />
<line x1="5162.7217" y1="9381.5" x2="4034.2544" y2="9715.333" stroke="#BDBDBD" stroke-width="5.0" />
<line x1="5162.7217" y1="9381.5" x2="4093.6836" y2="9935.333" stroke="#BDBDBD" stroke-width="5.0" />
<line x1="5162.7217" y1="9381.5" x2="4164.8066" y2="10155.333" stroke="#BDBDBD" stroke-width="5.0" />
<circle cx="8600" cy="8600" r="350.0" fill="#7986CB" />
<text x="8300.0" y="8628.0" fill="#000000" font-family="Arial" font-size="70" >Android Media M...</text>
<rect x="8895.08" y="7449.8574" width="402.00003" height="170.0" rx="60" ry="60" fill="#6EC3BB" />
<text x="8945.08" y="7561.8574" fill="#000000" font-family="Arial" font-size="70" >TV Shows</text>
<rect x="9256.012" y="7669.5713" width="320.0" height="170.0" rx="60" ry="60" fill="#D4A1DC" />
<text x="9306.012" y="7782.5713" fill="#000000" font-family="Arial" font-size="70" >Movies</text>
<rect x="9542.433" y="8551.523" width="464.0" height="170.0" rx="60" ry="60" fill="#6ED9E6" />
<text x="9592.433" y="8664.523" fill="#000000" font-family="Arial" font-size="70" >Preferances</text>
<rect x="9083.03" y="9506.81" width="294.0" height="169.99994" rx="60" ry="60" fill="#FEC46E" />
<text x="9133.03" y="9618.81" fill="#000000" font-family="Arial" font-size="70" >About</text>
<rect x="10582.619" y="7873.048" width="556.0" height="170.0" rx="60" ry="60" fill="#6F4E42" />
<text x="10632.619" y="7986.048" fill="#FFFFFF" font-family="Arial" font-size="70" >Data Providers</text>
<rect x="10696.746" y="9142.238" width="336.0" height="170.0" rx="60" ry="60" fill="#1E8BE8" />
<text x="10746.746" y="9255.238" fill="#FFFFFF" font-family="Arial" font-size="70" >Actions</text>
<rect x="11950.264" y="8905.857" width="306.0" height="170.0" rx="60" ry="60" fill="#4CAF50" />
<text x="12000.264" y="9017.857" fill="#FFFFFF" font-family="Arial" font-size="70" >Create</text>
<rect x="11758.668" y="9125.857" width="626.0" height="170.0" rx="60" ry="60" fill="#4CAF50" />
<text x="11808.668" y="9238.857" fill="#FFFFFF" font-family="Arial" font-size="70" >Reset to Defaults</text>
<rect x="11874.683" y="9345.857" width="302.0" height="170.0" rx="60" ry="60" fill="#4CAF50" />
<text x="11924.683" y="9457.857" fill="#FFFFFF" font-family="Arial" font-size="70" >Delete</text>
<rect x="11862.718" y="9565.857" width="204.0" height="170.0" rx="60" ry="60" fill="#4CAF50" />
<text x="11912.718" y="9678.857" fill="#FFFFFF" font-family="Arial" font-size="70" >List</text>
<rect x="9547.611" y="10498.905" width="624.0" height="170.0" rx="60" ry="60" fill="#00AFC5" />
<text x="9597.611" y="10611.905" fill="#FFFFFF" font-family="Arial" font-size="70" >Built Information</text>
<rect x="10926.4795" y="11050.857" width="244.0" height="170.0" rx="60" ry="60" fill="#FFE0B2" />
<text x="10976.4795" y="11162.857" fill="#000000" font-family="Arial" font-size="70" >Date</text>
<rect x="10669.925" y="11270.857" width="256.0" height="170.0" rx="60" ry="60" fill="#FFE0B2" />
<text x="10719.925" y="11383.857" fill="#000000" font-family="Arial" font-size="70" >Time</text>
<rect x="10387.417" y="11490.857" width="204.0" height="170.0" rx="60" ry="60" fill="#FFE0B2" />
<text x="10437.417" y="11608.857" fill="#000000" font-family="Arial" font-size="70" >Tag</text>
<rect x="9920.32" y="11710.857" width="334.0" height="170.0" rx="60" ry="60" fill="#FFE0B2" />
<text x="9970.32" y="11823.857" fill="#000000" font-family="Arial" font-size="70" >Version</text>
<rect x="9291.369" y="11930.857" width="358.0" height="170.0" rx="60" ry="60" fill="#FFECB3" />
<text x="9341.369" y="12043.857" fill="#000000" font-family="Arial" font-size="70" >Website</text>
<rect x="7882.3545" y="9527.833" width="244.0" height="169.99994" rx="60" ry="60" fill="#FEA082" />
<text x="7932.3545" y="9646.833" fill="#000000" font-family="Arial" font-size="70" >Help</text>
<rect x="11760.939" y="9785.857" width="254.0" height="170.0" rx="60" ry="60" fill="#4CAF50" />
<text x="11810.939" y="9898.857" fill="#FFFFFF" font-family="Arial" font-size="70" >View</text>
<rect x="11671.209" y="10005.857" width="246.0" height="170.0" rx="60" ry="60" fill="#4CAF50" />
<text x="11721.209" y="10117.857" fill="#FFFFFF" font-family="Arial" font-size="70" >Save</text>
<rect x="11607.323" y="7222.0713" width="544.0" height="170.0" rx="60" ry="60" fill="#B2DFDB" />
<text x="11657.323" y="7341.0713" fill="#000000" font-family="Arial" font-size="70" >Field Mapping</text>
<rect x="11956.657" y="8465.857" width="336.0" height="170.0" rx="60" ry="60" fill="#2196F3" />
<text x="12006.657" y="8578.857" fill="#FFFFFF" font-family="Arial" font-size="70" >Actions</text>
<rect x="13181.328" y="8119.476" width="204.0" height="170.0" rx="60" ry="60" fill="#BBDEFB" />
<text x="13231.328" y="8232.477" fill="#000000" font-family="Arial" font-size="70" >List</text>
<rect x="13145.721" y="8339.477" width="302.0" height="170.00002" rx="60" ry="60" fill="#BBDEFB" />
<text x="13195.721" y="8451.477" fill="#000000" font-family="Arial" font-size="70" >Delete</text>
<rect x="13188.789" y="8559.477" width="222.0" height="170.0" rx="60" ry="60" fill="#BBDEFB" />
<text x="13238.789" y="8672.477" fill="#000000" font-family="Arial" font-size="70" >Edit</text>
<rect x="13139.553" y="8779.477" width="306.0" height="170.0" rx="60" ry="60" fill="#BBDEFB" />
<text x="13189.553" y="8891.477" fill="#000000" font-family="Arial" font-size="70" >Create</text>
<rect x="12126.023" y="5845.0947" width="683.99976" height="170.0" rx="60" ry="60" fill="#795548" />
<text x="12176.023" y="5957.0947" fill="#FFFFFF" font-family="Arial" font-size="70" >API Data Membe...</text>
<rect x="12781.272" y="6733.476" width="336.0" height="170.0" rx="60" ry="60" fill="#2196F3" />
<text x="12831.272" y="6846.476" fill="#FFFFFF" font-family="Arial" font-size="70" >Actions</text>
<rect x="13614.777" y="5628.095" width="204.0" height="170.0" rx="60" ry="60" fill="#9C27B0" />
<text x="13664.777" y="5741.095" fill="#FFFFFF" font-family="Arial" font-size="70" >List</text>
<rect x="13683.811" y="5848.095" width="302.0" height="170.0" rx="60" ry="60" fill="#9C27B0" />
<text x="13733.811" y="5960.095" fill="#FFFFFF" font-family="Arial" font-size="70" >Delete</text>
<rect x="13814.1875" y="6068.095" width="254.0" height="170.0" rx="60" ry="60" fill="#9C27B0" />
<text x="13864.1875" y="6181.095" fill="#FFFFFF" font-family="Arial" font-size="70" >View</text>
<rect x="13925.591" y="6288.095" width="222.0" height="170.0" rx="60" ry="60" fill="#9C27B0" />
<text x="13975.591" y="6401.095" fill="#FFFFFF" font-family="Arial" font-size="70" >Edit</text>
<rect x="13968.59" y="6508.095" width="306.0" height="170.0" rx="60" ry="60" fill="#9C27B0" />
<text x="14018.59" y="6620.095" fill="#FFFFFF" font-family="Arial" font-size="70" >Create</text>
<rect x="10337.963" y="9857.238" width="381.99988" height="170.0" rx="60" ry="60" fill="#9124AB" />
<text x="10387.963" y="9970.238" fill="#FFFFFF" font-family="Arial" font-size="70" >Perf Data</text>
<rect x="13092.029" y="5177.6187" width="686.0" height="170.0" rx="60" ry="60" fill="#2196F3" />
<text x="13142.029" y="5296.6187" fill="#FFFFFF" font-family="Arial" font-size="70" >Key Value Pair Lis...</text>
<rect x="14079.174" y="4211.571" width="210.0" height="170.0" rx="60" ry="60" fill="#009688" />
<text x="14129.174" y="4329.571" fill="#FFFFFF" font-family="Arial" font-size="70" >Key</text>
<rect x="14210.008" y="4431.571" width="274.0" height="170.0" rx="60" ry="60" fill="#009688" />
<text x="14260.008" y="4543.571" fill="#FFFFFF" font-family="Arial" font-size="70" >Value</text>
<rect x="7420.403" y="9148.5" width="380.0" height="170.0" rx="60" ry="60" fill="#3E9942" />
<text x="7470.403" y="9261.5" fill="#FFFFFF" font-family="Arial" font-size="70" >Local File</text>
<rect x="6267.922" y="9492.444" width="390.0" height="170.00006" rx="60" ry="60" fill="#1E8BE8" />
<text x="6317.922" y="9611.444" fill="#FFFFFF" font-family="Arial" font-size="70" >Directory</text>
<rect x="6479.8057" y="9782.0" width="282.0" height="170.0" rx="60" ry="60" fill="#1E8BE8" />
<text x="6529.8057" y="9894.0" fill="#FFFFFF" font-family="Arial" font-size="70" >Name</text>
<rect x="6726.422" y="10071.556" width="226.0" height="170.0" rx="60" ry="60" fill="#1E8BE8" />
<text x="6776.422" y="10184.556" fill="#FFFFFF" font-family="Arial" font-size="70" >Size</text>
<rect x="14446.887" y="4730.1426" width="202.0" height="170.0" rx="60" ry="60" fill="#2196F3" />
<text x="14496.887" y="4841.1426" fill="#FFFFFF" font-family="Arial" font-size="70" >API</text>
<rect x="15326.967" y="3989.3325" width="282.0" height="170.0" rx="60" ry="60" fill="#2196F3" />
<text x="15376.967" y="4101.3325" fill="#FFFFFF" font-family="Arial" font-size="70" >Name</text>
<rect x="15470.984" y="4209.3325" width="274.0" height="170.0" rx="60" ry="60" fill="#2196F3" />
<text x="15520.984" y="4321.3325" fill="#FFFFFF" font-family="Arial" font-size="70" >Value</text>
<rect x="13038.941" y="7459.476" width="282.0" height="170.0" rx="60" ry="60" fill="#4CAF50" />
<text x="13088.941" y="7571.476" fill="#FFFFFF" font-family="Arial" font-size="70" >Name</text>
<rect x="13050.138" y="7679.476" width="350.0" height="170.0" rx="60" ry="60" fill="#4CAF50" />
<text x="13100.138" y="7791.476" fill="#FFFFFF" font-family="Arial" font-size="70" >Enabled</text>
<rect x="13144.5205" y="7899.476" width="230.0" height="170.0" rx="60" ry="60" fill="#4CAF50" />
<text x="13194.5205" y="8011.476" fill="#FFFFFF" font-family="Arial" font-size="70" >Sort</text>
<rect x="14020.659" y="6728.095" width="352.0" height="170.0" rx="60" ry="60" fill="#9C27B0" />
<text x="14070.659" y="6840.095" fill="#FFFFFF" font-family="Arial" font-size="70" >Rename</text>
<rect x="14018.193" y="6948.095" width="488.0" height="170.0" rx="60" ry="60" fill="#9C27B0" />
<text x="14068.193" y="7067.095" fill="#FFFFFF" font-family="Arial" font-size="70" >Change Sort</text>
<rect x="11335.443" y="10528.357" width="316.0" height="170.0" rx="60" ry="60" fill="#B2DFDB" />
<text x="11385.443" y="10640.357" fill="#000000" font-family="Arial" font-size="70" >Theme</text>
<rect x="12627.446" y="10759.477" width="204.0" height="170.0" rx="60" ry="60" fill="#FFCDD2" />
<text x="12677.446" y="10872.477" fill="#000000" font-family="Arial" font-size="70" >List</text>
<rect x="12459.044" y="10979.477" width="286.0" height="170.0" rx="60" ry="60" fill="#FFCDD2" />
<text x="12509.044" y="11098.477" fill="#000000" font-family="Arial" font-size="70" >Apply</text>
<rect x="12298.925" y="11199.477" width="318.0" height="170.0" rx="60" ry="60" fill="#FFCDD2" />
<text x="12348.925" y="11318.477" fill="#000000" font-family="Arial" font-size="70" >Upload</text>
<rect x="12142.134" y="11419.477" width="306.0" height="170.0" rx="60" ry="60" fill="#FFCDD2" />
<text x="12192.134" y="11531.477" fill="#000000" font-family="Arial" font-size="70" >Create</text>
<rect x="11960.074" y="11639.477" width="302.0" height="170.0" rx="60" ry="60" fill="#FFCDD2" />
<text x="12010.074" y="11751.477" fill="#000000" font-family="Arial" font-size="70" >Delete</text>
<rect x="7145.916" y="8135.6665" width="684.0" height="170.0" rx="60" ry="60" fill="#929CD5" />
<text x="7195.916" y="8248.667" fill="#000000" font-family="Arial" font-size="70" >Media Parent Cla...</text>
<rect x="7517.971" y="6330.0" width="434.0" height="170.0" rx="60" ry="60" fill="#DAAFE2" />
<text x="7567.971" y="6442.0" fill="#000000" font-family="Arial" font-size="70" >Show Data</text>
<rect x="7005.9126" y="6605.0" width="450.0" height="170.0" rx="60" ry="60" fill="#9124AB" />
<text x="7055.9126" y="6718.0" fill="#FFFFFF" font-family="Arial" font-size="70" >Movie Data</text>
<rect x="6107.3115" y="8031.333" width="386.0" height="170.0" rx="60" ry="60" fill="#ABB3DF" />
<text x="6157.3115" y="8143.333" fill="#000000" font-family="Arial" font-size="70" >Common</text>
<rect x="5978.865" y="5925.0" width="460.0" height="170.0" rx="60" ry="60" fill="#3F51B5" />
<text x="6028.865" y="6044.0" fill="#FFFFFF" font-family="Arial" font-size="70" >Description</text>
<rect x="5758.6465" y="6145.0" width="464.0" height="170.0" rx="60" ry="60" fill="#3F51B5" />
<text x="5808.6465" y="6263.0" fill="#FFFFFF" font-family="Arial" font-size="70" >Title/Name</text>
<rect x="5640.593" y="6365.0" width="332.0" height="170.0" rx="60" ry="60" fill="#3F51B5" />
<text x="5690.593" y="6484.0" fill="#FFFFFF" font-family="Arial" font-size="70" >Ratings</text>
<rect x="4726.457" y="5648.333" width="298.0" height="170.0" rx="60" ry="60" fill="#F5F5F5" />
<text x="4776.457" y="5767.333" fill="#000000" font-family="Arial" font-size="70" >Rating</text>
<rect x="5439.0376" y="6640.0" width="352.0" height="170.0" rx="60" ry="60" fill="#3F51B5" />
<text x="5489.0376" y="6753.0" fill="#FFFFFF" font-family="Arial" font-size="70" >Reviews</text>
<rect x="4569.3047" y="5905.0" width="244.0" height="170.0" rx="60" ry="60" fill="#F5F5F5" />
<text x="4619.3047" y="6017.0" fill="#000000" font-family="Arial" font-size="70" >Date</text>
<rect x="4392.038" y="6125.0" width="322.0" height="170.0" rx="60" ry="60" fill="#F5F5F5" />
<text x="4442.038" y="6238.0" fill="#000000" font-family="Arial" font-size="70" >Review</text>
<rect x="5213.041" y="6915.0" width="492.0" height="170.0" rx="60" ry="60" fill="#3F51B5" />
<text x="5263.041" y="7028.0" fill="#FFFFFF" font-family="Arial" font-size="70" >Provider link</text>
<rect x="5194.3564" y="7135.0" width="324.0" height="170.0" rx="60" ry="60" fill="#3F51B5" />
<text x="5244.3564" y="7253.0" fill="#FFFFFF" font-family="Arial" font-size="70" >Images</text>
<rect x="5089.333" y="7355.0" width="364.0" height="170.0" rx="60" ry="60" fill="#3F51B5" />
<text x="5139.333" y="7468.0" fill="#FFFFFF" font-family="Arial" font-size="70" >Runtime</text>
<rect x="5007.634" y="7597.0" width="378.0" height="170.0" rx="60" ry="60" fill="#3F51B5" />
<text x="5057.634" y="7710.0" fill="#FFFFFF" font-family="Arial" font-size="70" >Subtitles</text>
<rect x="4922.427" y="7839.0" width="436.0" height="170.0" rx="60" ry="60" fill="#3F51B5" />
<text x="4972.427" y="7957.0" fill="#FFFFFF" font-family="Arial" font-size="70" >Languages</text>
<rect x="4952.619" y="8059.0" width="304.0" height="170.0" rx="60" ry="60" fill="#3F51B5" />
<text x="5002.619" y="8171.0" fill="#FFFFFF" font-family="Arial" font-size="70" >Actors</text>
<rect x="4890.909" y="8279.0" width="384.0" height="170.0" rx="60" ry="60" fill="#3F51B5" />
<text x="4940.909" y="8392.0" fill="#FFFFFF" font-family="Arial" font-size="70" >Directors</text>
<rect x="4914.036" y="8499.0" width="322.0" height="170.0" rx="60" ry="60" fill="#3F51B5" />
<text x="4964.036" y="8611.0" fill="#FFFFFF" font-family="Arial" font-size="70" >Genres</text>
<rect x="3695.0483" y="8493.666" width="410.0" height="170.0" rx="60" ry="60" fill="#9E9E9E" />
<text x="3745.0483" y="8612.666" fill="#FFFFFF" font-family="Arial" font-size="70" >Is Primary</text>
<rect x="4958.908" y="8719.0" width="244.0" height="170.0" rx="60" ry="60" fill="#3F51B5" />
<text x="5008.908" y="8831.0" fill="#FFFFFF" font-family="Arial" font-size="70" >Date</text>
<rect x="7047.4565" y="5237.5" width="510.0" height="170.0" rx="60" ry="60" fill="#FFC107" />
<text x="7097.4565" y="5356.5" fill="#000000" font-family="Arial" font-size="70" >Episode Data</text>
<rect x="7410.1094" y="3925.0" width="357.99994" height="170.0" rx="60" ry="60" fill="#3F51B5" />
<text x="7460.1094" y="4037.0" fill="#FFFFFF" font-family="Arial" font-size="70" >Number</text>
<rect x="6708.9424" y="4145.0" width="322.0" height="170.0" rx="60" ry="60" fill="#3F51B5" />
<text x="6758.9424" y="4257.0" fill="#FFFFFF" font-family="Arial" font-size="70" >Season</text>
<rect x="6274.759" y="4365.0" width="238.0" height="170.0" rx="60" ry="60" fill="#3F51B5" />
<text x="6324.759" y="4477.0" fill="#FFFFFF" font-family="Arial" font-size="70" >Year</text>
<rect x="3776.1787" y="7291.0" width="572.0" height="170.0" rx="60" ry="60" fill="#FFEB3B" />
<text x="3826.1787" y="7404.0" fill="#000000" font-family="Arial" font-size="70" >Subtitle Search</text>
<rect x="2609.544" y="6875.0" width="698.0" height="170.0" rx="60" ry="60" fill="#FFEB3B" />
<text x="2659.544" y="6988.0" fill="#000000" font-family="Arial" font-size="70" >Subtitle Downloa...</text>
<rect x="2697.191" y="7095.0" width="404.0" height="170.0" rx="60" ry="60" fill="#FFEB3B" />
<text x="2747.191" y="7213.0" fill="#000000" font-family="Arial" font-size="70" >Language</text>
<rect x="4994.7217" y="9296.5" width="336.0" height="170.0" rx="60" ry="60" fill="#2196F3" />
<text x="5044.7217" y="9409.5" fill="#FFFFFF" font-family="Arial" font-size="70" >Actions</text>
<rect x="3799.2432" y="9227.0" width="310.0" height="170.0" rx="60" ry="60" fill="#FFEB3B" />
<text x="3849.2432" y="9339.0" fill="#000000" font-family="Arial" font-size="70" >Search</text>
<rect x="2569.8042" y="9405.0" width="446.0" height="170.0" rx="60" ry="60" fill="#9E9E9E" />
<text x="2619.8042" y="9518.0" fill="#FFFFFF" font-family="Arial" font-size="70" >List Results</text>
<rect x="1378.7334" y="9253.0" width="420.0" height="170.0" rx="60" ry="60" fill="#CDDC39" />
<text x="1428.7334" y="9365.0" fill="#000000" font-family="Arial" font-size="70" >Not Found</text>
<rect x="1470.3931" y="9473.0" width="290.0" height="169.99994" rx="60" ry="60" fill="#CDDC39" />
<text x="1520.3931" y="9585.0" fill="#000000" font-family="Arial" font-size="70" >Found</text>
<rect x="275.29102" y="9632.666" width="352.0005" height="170.0" rx="60" ry="60" fill="#CDDC39" />
<text x="325.29102" y="9744.666" fill="#000000" font-family="Arial" font-size="70" >Rename</text>
<rect x="1363.1138" y="9693.0" width="572.0" height="170.0" rx="60" ry="60" fill="#FFEB3B" />
<text x="1413.1138" y="9806.0" fill="#000000" font-family="Arial" font-size="70" >Create NFO file</text>
<rect x="1426.0" y="9913.0" width="528.0" height="170.0" rx="60" ry="60" fill="#FFEB3B" />
<text x="1476.0" y="10025.0" fill="#000000" font-family="Arial" font-size="70" >Download Art</text>
<rect x="3858.2544" y="9630.333" width="352.0" height="170.0" rx="60" ry="60" fill="#FFEB3B" />
<text x="3908.2544" y="9742.333" fill="#000000" font-family="Arial" font-size="70" >Rename</text>
<rect x="3942.6836" y="9850.333" width="302.0" height="170.0" rx="60" ry="60" fill="#FFEB3B" />
<text x="3992.6836" y="9962.333" fill="#000000" font-family="Arial" font-size="70" >Delete</text>
<rect x="3831.8066" y="10070.333" width="666.0" height="170.0" rx="60" ry="60" fill="#FFEB3B" />
<text x="3881.8066" y="10189.333" fill="#000000" font-family="Arial" font-size="70" >Sequential Rena...</text>
</svg>
